<?xml version="1.0" encoding="UTF-8"?><svg id="a" xmlns="http://www.w3.org/2000/svg" width="108.59" height="26" viewBox="0 0 108.59 26"><defs><style>.d{fill:#00347f;}.e{fill:#f6d50e;}.f{fill:#4daf69;fill-rule:evenodd;}</style></defs><g id="b"><g id="c"><g><g><g><path class="d" d="M22.19,22.19h0c1.68-1.68,2.8-3.7,3.37-5.83l-12.56-3.37,9.19,9.19Z"/><path class="d" d="M13,13L16.37,.44C14.16-.15,11.84-.15,9.63,.44l3.37,12.56h0Z"/><path class="d" d="M13,13L.44,16.37c.57,2.13,1.69,4.15,3.37,5.83h0L13,13h0Z"/><path class="d" d="M13,13l-3.37,12.56c2.2,.59,4.53,.59,6.73,0l-3.37-12.56h0Z"/><path class="d" d="M25.56,9.63c-.57-2.13-1.69-4.15-3.37-5.83L13,13l12.56-3.37Z"/><path class="d" d="M13,13L3.81,3.81c-1.68,1.68-2.8,3.7-3.37,5.83l12.56,3.37h0Z"/></g><g><path class="e" d="M13,13h0l12.56,3.37c.59-2.2,.59-4.53,0-6.73l-12.56,3.37h0Z"/><path class="e" d="M.44,9.63C-.15,11.84-.15,14.16,.44,16.37l12.56-3.37L.44,9.63Z"/><path class="e" d="M22.19,22.19L13,13h0l3.37,12.56c2.13-.57,4.15-1.69,5.83-3.37Z"/><path class="e" d="M13,13L3.81,22.19c1.68,1.68,3.7,2.8,5.83,3.37l3.37-12.56h0Z"/><path class="e" d="M13,13L22.19,3.81h0c-1.68-1.68-3.7-2.8-5.83-3.37l-3.37,12.56h0Z"/><path class="e" d="M13,13L9.63,.44c-2.13,.57-4.15,1.69-5.83,3.37h0L13,13h0Z"/></g></g><g><g><path class="d" d="M17.34,20.51h0c1.37-.79,2.44-1.9,3.18-3.18l-7.51-4.34,4.34,7.51Z"/><path class="d" d="M13,13l4.34-7.51c-1.32-.76-2.82-1.16-4.34-1.16V13h0Z"/><path class="d" d="M13,13H4.33c0,1.48,.37,2.97,1.16,4.34h0l7.51-4.34h0Z"/><path class="d" d="M13,13l-4.34,7.51c1.32,.76,2.82,1.16,4.34,1.16V13h0Z"/><path class="d" d="M21.67,13c0-1.48-.37-2.97-1.16-4.34l-7.51,4.34h8.67Z"/><path class="d" d="M13,13l-4.34-7.51c-1.37,.79-2.44,1.9-3.18,3.18l7.51,4.34h0Z"/></g><g><path class="e" d="M13,13h0l7.51,4.34c.76-1.32,1.16-2.82,1.16-4.34H13Z"/><path class="e" d="M5.49,8.66c-.76,1.32-1.16,2.82-1.16,4.34H13l-7.51-4.34Z"/><path class="e" d="M17.34,20.51l-4.34-7.51h0v8.67c1.48,0,2.97-.37,4.34-1.16Z"/><path class="e" d="M13,13l-7.51,4.34c.79,1.37,1.9,2.44,3.18,3.18l4.34-7.51h0Z"/><path class="e" d="M13,13l7.51-4.34h0c-.79-1.37-1.9-2.44-3.18-3.18l-4.34,7.51h0Z"/><path class="e" d="M13,13V4.33c-1.48,0-2.97,.37-4.34,1.16h0l4.34,7.51h0Z"/></g></g></g><g><path class="f" d="M57.74,4.7c.78,.07,1.72-.02,2.5,.04,.02,3.33-.03,5.09,.02,8.45,.17-.03,.29-.17,.43-.28,.65-.49,1.26-.98,1.96-1.49,.21-.15,.7-.45,.71-.68,0-.3-.39-.45-.66-.55,.03-.6-.05-1.31,.04-1.83,1.81-.09,4-.04,5.8-.02,.03,.58,.03,1.3,0,1.88-1.09,.09-1.79,.88-2.48,1.43-.67,.54-1.28,1.06-1.88,1.58,.87,1.29,1.83,2.64,2.75,3.97,.29,.43,.6,.93,.96,1.26,.35,.32,.8,.48,1.22,.73v1.81c-1.85,.07-4,.07-5.85,0,.1-.37-.13-1.39,0-1.79,.05-.16,.28-.19,.41-.39,.33-.49-.09-.92-.36-1.3-.45-.65-.86-1.25-1.32-1.94-.09-.14-.19-.35-.28-.36-.16-.03-.66,.45-.77,.53-.27,.22-.47,.4-.71,.6,.09,.69-.12,1.38,.02,1.96,.12,.49,.6,.59,.94,.87-.02,.6,.03,1.25-.02,1.81-1.86,.07-4.03,.07-5.91,0-.05-.56,0-1.22-.02-1.81,.42-.26,.95-.39,1.22-.79,.16-.42,.11-1.09,.11-1.75v-6.44c0-.46,.07-.97,0-1.37-.1-.59-.86-.77-1.32-.98v-1.56c1.24-.12,1.82-.9,2.5-1.58h0Z"/><path class="f" d="M73.15,4.7c.79,.05,1.67,0,2.5,.02,.02,3.34-.03,5.1,.02,8.47,.31-.11,.53-.37,.81-.58,.52-.38,1-.77,1.57-1.19,.2-.15,.69-.44,.71-.66,.03-.33-.37-.46-.64-.58,.02-.52-.03-1.36,.02-1.83,1.83-.1,3.97-.02,5.8-.04,.07,.54,.07,1.36,0,1.9-.79,.03-1.18,.42-1.69,.81-.88,.69-1.85,1.49-2.67,2.2,.65,.94,1.3,1.89,1.96,2.83,.65,.94,1.26,1.93,2.11,2.69,.28,.14,.62,.23,.85,.43,.03,.55,.03,1.26,0,1.81-1.85,.07-4,.07-5.85,0v-1.81c.26-.23,.59-.41,.53-.85-.02-.13-.12-.31-.21-.45-.25-.35-.58-.83-.81-1.13-.22-.4-.5-.76-.79-1.17-.06-.08-.18-.35-.28-.36-.11-.02-.31,.18-.41,.26-.37,.29-.75,.59-1.06,.9,.08,.71-.13,1.43,.04,1.99,.14,.46,.56,.55,.9,.81,.04,.56,.04,1.28,0,1.83-1.86,.07-4.03,.07-5.91,0-.05-.56,0-1.22-.02-1.81,.43-.26,.98-.39,1.24-.81,.14-.39,.09-1.04,.09-1.67v-6.5c0-.47,.07-1,0-1.39-.1-.56-.86-.75-1.32-.96,.02-.51-.03-1.08,.02-1.56,1.22-.13,1.81-.89,2.48-1.58h0Z"/><path class="f" d="M41.49,4.8c.03,.59,.03,1.33,0,1.92-.5,.2-1,.4-1.28,.81-.08,2.77-.04,5.73-.04,8.64,0,.96,.08,1.95-.09,2.8-.18,.92-.62,1.75-1.19,2.26-.85,.76-2.17,1.08-3.46,1.03-1.6-.07-2.87-.74-3.54-1.94-.31-.56-.57-1.31-.43-2.24,.02-.16,.12-.3,.11-.53,.2-.48,.5-.85,.87-1.15,.18-.06,.34-.15,.49-.23,1.2-.32,2.28,.18,2.65,1.03,.29,1.05-.05,2.18-1,2.33,.14,.48,.86,.56,1.28,.32,.28-.16,.47-.45,.62-.77,.28-.63,.33-1.67,.04-2.33-.07-.17-.27-.32-.32-.53-.07-.28,0-.72,0-1.09v-6.48c0-.36,.05-.78-.02-1.05-.15-.53-.85-.67-1.28-.9,.01-.53-.03-1.38,.02-1.88,.03-.05,.06-.02,.07-.02,2.11-.05,4.44,.04,6.51,0h0Z"/><path class="f" d="M48.34,7.92c1.14-.03,2.32,.23,3.14,.66,.59,.31,.99,.63,1.43,1.11,.43,.47,.69,.95,.96,1.6,.68,1.63,.77,4.43,.17,6.27-.08,.24-.14,.37-.23,.6-.58,1.37-1.53,2.29-2.96,2.84-.86,.33-2.1,.47-3.35,.36-.11-.01-.22-.07-.34-.09-.35-.06-.64-.06-.94-.15-.26-.08-.63-.22-.9-.36-.88-.46-1.61-1.11-2.07-2.01-.33-.63-.62-1.31-.77-2.03-.05-.23-.07-.49-.11-.73-.06-.39-.07-.9-.07-1.36,0-1.3,.19-2.39,.55-3.33,.56-1.44,1.52-2.44,2.99-2.99,.72-.27,1.6-.39,2.5-.41v.02Zm-.26,2.77c-1.03,.08-1.51,1-1.73,1.92-.46,1.96-.27,5.03,1.03,5.78,.39,.13,.69,.3,1.24,.23,1.26-.16,1.75-1.38,1.9-2.71,.18-1.61-.02-3.57-.6-4.46-.16-.16-.32-.34-.49-.49-.37-.21-.75-.33-1.35-.28h0Z"/><path class="f" d="M96.51,14.96c-2.49,.1-5.28,.02-7.79,.04-.08,2.12,.45,3.83,2.67,3.63,1.23-.11,1.85-.85,2.09-1.99,.48-.06,1,.07,1.51,.13,.52,.06,1.03,.14,1.49,.23-.03,.64-.27,1.2-.53,1.69-.48,.88-1.18,1.57-2.11,2.03-.41,.2-.88,.41-1.35,.51-1.24,.27-2.84,.19-3.92-.17-.09-.03-.17-.08-.26-.11-1.62-.62-2.73-2.04-3.18-3.8-.37-1.44-.36-3.53,0-4.97,.36-1.43,1.18-2.6,2.31-3.35,.28-.18,.59-.33,.94-.47,1.58-.64,4.06-.59,5.48,.19,.37,.2,.68,.4,.98,.68,.47,.46,.88,1.05,1.13,1.75,.39,1.06,.65,2.48,.53,3.97h0Zm-5.46-4.95c-.45-.06-.79,.11-1.13,.23-.35,.28-.68,.67-.85,1.17-.09,.25-.11,.47-.17,.77-.04,.23-.17,.53-.09,.79,1.15,.05,2.68,0,3.86,.02,.08-1.38-.36-2.82-1.62-2.99h0Z"/><path class="f" d="M105.03,10.29c-.05-.09-.22-.08-.3-.15-1.06,.05-1.58,.87-1.79,1.83-.09,.4-.07,.94-.07,1.47v1.54c0,1.11-.09,2.15,0,3.07,.07,.68,.86,.82,1.32,1.09,.04,.57,.04,1.29,0,1.86-2.03,.02-4.28,.07-6.3-.02v-1.79c.37-.3,.95-.39,1.19-.81,.17-.4,.11-1.15,.11-1.79v-3.01c0-.72,.1-1.61-.23-1.94-.11-.11-.3-.21-.49-.3-.16-.08-.45-.13-.53-.23-.17-.21,.04-1.26-.04-1.56,.79-.07,1.34-.33,1.83-.73,.18-.15,.46-.47,.62-.51,.27-.08,.65,0,.96,0h.96c.16,.27,.17,.69,.3,.98,.82-.68,1.69-1.31,3.07-1.38,.81-.04,1.62,.28,2.07,.73,.74,.73,1.12,2.23,.68,3.44-.18,.49-.51,1-.96,1.22-.4,.2-1.12,.29-1.71,.12-.93-.27-1.54-1.22-1.15-2.48,.14-.23,.28-.45,.45-.64h0Z"/></g></g></g></svg>