<svg xmlns="http://www.w3.org/2000/svg" xmlns:xlink="http://www.w3.org/1999/xlink" viewBox="0 0 554.44 212.45"><defs><style>.cls-1{fill:url(#linear-gradient);}.cls-2{fill:#fff;}.cls-3{fill:#ff7d15;}.cls-4{fill:#fc2745;}</style><linearGradient id="linear-gradient" y1="183.8" x2="505.99" y2="183.8" gradientUnits="userSpaceOnUse"><stop offset="0" stop-color="#ff3f6f"/><stop offset="0.21" stop-color="#ff4862"/><stop offset="0.6" stop-color="#ff603f"/><stop offset="1" stop-color="#ff7d15"/></linearGradient></defs><title>saturday-lotto</title><g id="Layer_2" data-name="Layer 2"><g id="Layer_1-2" data-name="Layer 1"><rect class="cls-1" y="155.15" width="505.99" height="57.3" rx="8.5" ry="8.5"/><path class="cls-2" d="M22.25,188H35.53a3.24,3.24,0,0,0,2,1.73A17.36,17.36,0,0,0,42,190.84a50.92,50.92,0,0,0,6.5.36q3.65,0,5.77-.22a7.29,7.29,0,0,0,3-.78,1.73,1.73,0,0,0,.88-1.53q0-.92-1.41-1.43a19.88,19.88,0,0,0-5-.71q-3.6-.19-10.12-.2a65.65,65.65,0,0,1-8.39-.46,21.44,21.44,0,0,1-5.79-1.46A7.72,7.72,0,0,1,24,181.89,6.25,6.25,0,0,1,23,178.21a8.11,8.11,0,0,1,2.51-6.11,16.1,16.1,0,0,1,7.59-3.6,57,57,0,0,1,12.72-1.19q11.19,0,17.1,3.24t5.91,9.32H56.2q-.24-1.61-3-2.46a28.23,28.23,0,0,0-7.88-.85,35.37,35.37,0,0,0-7.52.58q-2.46.58-2.46,2a1.33,1.33,0,0,0,.68,1.17,6.57,6.57,0,0,0,2.36.71,40.08,40.08,0,0,0,4.74.36q3.07.1,7.78.1a65.28,65.28,0,0,1,8.85.51,22,22,0,0,1,5.91,1.53,7.38,7.38,0,0,1,3.28,2.6,6.71,6.71,0,0,1,1,3.72,8.16,8.16,0,0,1-2.34,6q-2.34,2.34-7.4,3.45A63.43,63.43,0,0,1,47,200.45a62.33,62.33,0,0,1-8.49-.54,36.28,36.28,0,0,1-6.88-1.58,19.25,19.25,0,0,1-5.11-2.58,11.18,11.18,0,0,1-3.19-3.45A8.45,8.45,0,0,1,22.25,188Z"/><path class="cls-2" d="M74.84,199.48l20.87-31.14h13.53l21.07,31.14H116.92l-18-27.88h7.25l-17.9,27.88Zm10.9-4.72v-7.3H119v7.3Z"/><path class="cls-2" d="M129.82,168.34h50.6v9.24h-50.6ZM149,176.95H161.2v22.53H149Z"/><path class="cls-2" d="M232.91,181.72V168.34h12.16v15.57a14.86,14.86,0,0,1-1.53,7,13.21,13.21,0,0,1-4.26,4.77,21.48,21.48,0,0,1-6.28,2.9,43.42,43.42,0,0,1-7.61,1.43,81.42,81.42,0,0,1-8.25.41q-4.43,0-8.56-.41a42.86,42.86,0,0,1-7.66-1.43,20.17,20.17,0,0,1-6.15-2.9,13.11,13.11,0,0,1-4.11-4.77,15.26,15.26,0,0,1-1.48-7V168.34h12.16v13.38a8.42,8.42,0,0,0,1.9,5.94,10,10,0,0,0,5.42,2.8,41.15,41.15,0,0,0,8.49.75,40.67,40.67,0,0,0,8.37-.75,10.19,10.19,0,0,0,5.47-2.8A8.35,8.35,0,0,0,232.91,181.72Z"/><path class="cls-2" d="M255.78,199.48V168.34h37.61a29.28,29.28,0,0,1,8,1,11.4,11.4,0,0,1,5.59,3.33A9.27,9.27,0,0,1,309,179a9,9,0,0,1-1,4.43,7,7,0,0,1-2.68,2.72,12.85,12.85,0,0,1-3.89,1.41,29.29,29.29,0,0,1-4.57.54l-3.55-.68a73.61,73.61,0,0,1,8.93.49,8.23,8.23,0,0,1,4.38,1.58,4.24,4.24,0,0,1,1.24,3.28v6.67H295.72v-5.21a2.79,2.79,0,0,0-3-3.26,41.19,41.19,0,0,0-5.77-.29h-19v8.76Zm12.16-16.88h25.45a5.56,5.56,0,0,0,2.46-.49,1.86,1.86,0,0,0,1-1.85,1.73,1.73,0,0,0-1-1.73,5.83,5.83,0,0,0-2.46-.46H267.94Z"/><path class="cls-2" d="M354.64,168.34a39,39,0,0,1,10.85,1.26,17.19,17.19,0,0,1,6.71,3.45,12.18,12.18,0,0,1,3.43,5,17.33,17.33,0,0,1,1,5.86,15.64,15.64,0,0,1-1.12,5.86,12.82,12.82,0,0,1-3.67,5,18.41,18.41,0,0,1-6.76,3.45,36.77,36.77,0,0,1-10.44,1.26h-35V168.34Zm-22.87,21.41h22.38a24.87,24.87,0,0,0,4.62-.37,8.74,8.74,0,0,0,3-1.09,4.34,4.34,0,0,0,1.65-1.82,6.64,6.64,0,0,0,0-5.11,4.34,4.34,0,0,0-1.65-1.82,8.74,8.74,0,0,0-3-1.09,25,25,0,0,0-4.62-.36H331.77Z"/><path class="cls-2" d="M381,199.48l20.87-31.14h13.53l21.07,31.14H423.09L405,171.6h7.25l-17.9,27.88Zm10.9-4.72v-7.3h33.28v7.3Z"/><path class="cls-2" d="M484.39,168.34l-19.7,23.21v7.93H452.53v-7.93l-19.7-23.21h14.35l16,20.19h-9L470,168.34Z"/><g id="Page-1"><g id="Core"><g id="star"><path id="Shape" class="cls-3" d="M512.77,155.8l-.17,22.89,16.53-15.84,21.73,7.23-10-20.62,13.54-18.39-22.63,3.06-13.32-18.62-4.07,22.53L492.6,145Z"/></g></g></g><path class="cls-4" d="M61.79,0h3.78Q82.14,6.07,82.14,15.92q-4.28,7-34.33,71.74l-5.07,8.92L82.14,94l5.07.64H91v1.28H89.13v1.93h3.78v1.28l-6.35,3.14,1.28,3.78h3.78l5.71,5.78q0,1.71-37.47,6.92Q44,122,16.68,129.62H16q-3.5,0-12.06-10.21v-.64l.64-.57L4,117.56v-6.35q0-3.21,5.71-7.64,30-55.46,43.18-94l-.64-1.93Q56.23,0,61.79,0Z"/><path class="cls-4" d="M183.07,5.57h.71q6.78,0,13.7,13.06l.71.71v3.21q0,3.07-10.28,5.28v.64Q203.69,48,203.7,65.1v3.28q0,42.26-36.4,54.32Q154.87,126,146.73,126h-7.57q-32,0-46-32.69-2-.43-2.71-11.78V76.87q0-31.69,46-57.53Q165.44,5.57,183.07,5.57ZM115.83,82.8v.64q0,11.35,14.42,13.06h5.5q22.2,0,41.19-25.48,2.93-6.71,4.07-17.7-.64-9.14-2-11.14l.64-1.93q-1.86-9.85-2.71-9.85-20.2,2.71-46.68,26.2Q115.83,70.59,115.83,82.8Z"/><path class="cls-4" d="M275.15,2.07l12.78.64H300.7a5.69,5.69,0,0,1,5.42,3.43l-.71.64q3.35.21,3.35,2v.71h-7.35v.64h2.64v1.36h-1.28l.64.71-.64.64V14.2l3.35.64v.71l-.71.64v.71q4.07,0,4.07,5.35,2.71.36,2.71,2v1.36l-39.76,4.71q-5.07,0-8.07,12.78-35.55,69.24-42.47,88.22-4.07,4.07-6.71,4.07l-2.71-2.71q-4,0-4-3.35l-.71.71h-.64q-.14-1.71-6.71-6.07l-2.07-3.43q0-13.56,32.33-72l5.42-12.78-25,4Q197,39.76,192.27,27l-2-8.07V17.56q0-4.28,5.35-8.07h8.78Q225.54,9.49,275.15,2.07Z"/><path class="cls-4" d="M371.51,2.07l12.78.64h12.78a5.69,5.69,0,0,1,5.42,3.43l-.71.64q3.35.21,3.35,2v.71h-7.35v.64h2.64v1.36h-1.28l.64.71-.64.64V14.2l3.35.64v.71l-.71.64v.71q4.07,0,4.07,5.35,2.71.36,2.71,2v1.36l-39.76,4.71q-5.07,0-8.07,12.78-35.55,69.24-42.47,88.22-4.07,4.07-6.71,4.07l-2.71-2.71q-4,0-4-3.35l-.71.71h-.64q-.14-1.71-6.71-6.07l-2.07-3.43q0-13.56,32.33-72l5.42-12.78-25,4q-14.13,0-18.84-12.78l-2-8.07V17.56q0-4.28,5.35-8.07h8.78Q321.9,9.49,371.51,2.07Z"/><path class="cls-4" d="M491,5.57h.71q6.78,0,13.7,13.06l.71.71v3.21q0,3.07-10.28,5.28v.64Q511.62,48,511.62,65.1v3.28q0,42.26-36.4,54.32Q462.8,126,454.66,126H447.1q-32,0-46-32.69-2-.43-2.71-11.78V76.87q0-31.69,46-57.53Q473.36,5.57,491,5.57ZM423.76,82.8v.64q0,11.35,14.42,13.06h5.5q22.2,0,41.19-25.48,2.93-6.71,4.07-17.7-.64-9.14-2-11.14l.64-1.93q-1.86-9.85-2.71-9.85-20.2,2.71-46.68,26.2Q423.75,70.59,423.76,82.8Z"/></g></g></svg>